<svg width="20" height="20" viewBox="0 0 20 20" fill="none" xmlns="http://www.w3.org/2000/svg">
<path d="M10.1311 1.25L7.8931 2.68082L10.1311 4.14832L12.4791 2.68082L10.1311 1.25Z" fill="#686868"/>
<path d="M10.1311 15.8517L7.8931 17.2825L10.1311 18.75L12.4791 17.2825L10.1311 15.8517Z" fill="#686868"/>
<path d="M3.71059 9.98167L5.94861 8.55084L8.29662 9.98167L5.94861 11.4492L3.71059 9.98167Z" fill="#686868"/>
<path d="M14.1666 8.55084L11.9286 9.98167L14.1666 11.4492L16.5146 9.98167L14.1666 8.55084Z" fill="#686868"/>
<path d="M2.50003 5.54243L5.03142 4.22168V7.34014L2.50003 8.55083V5.54243Z" fill="#686868"/>
<path d="M9.15876 11.6136L6.62738 12.9343V15.9427L9.15876 14.732V11.6136Z" fill="#686868"/>
<path d="M9.15874 5.54252L6.62735 4.22176V7.34022L9.15874 8.55091V5.54252Z" fill="#686868"/>
<path d="M2.5 11.6136L5.03139 12.9343V15.9427L2.5 14.732V11.6136Z" fill="#686868"/>
<path d="M11.085 5.54243L13.6164 4.22168V7.34014L11.085 8.55083V5.54243Z" fill="#686868"/>
<path d="M17.7437 11.6136L15.2123 12.9343V15.9427L17.7437 14.732V11.6136Z" fill="#686868"/>
<path d="M17.7437 5.54252L15.2123 4.22176V7.34022L17.7437 8.55091V5.54252Z" fill="#686868"/>
<path d="M11.085 11.6136L13.6164 12.9343V15.9427L11.085 14.732V11.6136Z" fill="#686868"/>
</svg>
